<?xml version="1.0" encoding="utf-8"?>
<!-- Generator: Adobe Illustrator 22.1.0, SVG Export Plug-In . SVG Version: 6.00 Build 0)  -->
<svg version="1.1" id="Layer_1" xmlns="http://www.w3.org/2000/svg" xmlns:xlink="http://www.w3.org/1999/xlink" x="0px" y="0px"
	 viewBox="0 0 1600 300" style="enable-background:new 0 0 1600 300;" xml:space="preserve">
<style type="text/css">
	.st0{fill:#54504E;}
	.st1{fill:#FF671D;}
</style>
<path class="st0" d="M72.4,129.5v116.7c0.6,24.7,20.9,44.6,45.7,44.6c25.2,0,45.7-20.5,45.7-45.7V130.7c0-25.2-20.5-45.7-45.7-45.7
	C93.3,85,73,104.9,72.4,129.5 M117.9,161.7c-16.8,0-30.4-13.7-30.4-30.4c0-16.8,13.6-30.4,30.4-30.4c16.8,0,30.4,13.6,30.4,30.4
	C148.3,148,134.7,161.7,117.9,161.7z"/>
<path class="st0" d="M220.9,290.8c-25.2,0-45.7-20.5-45.7-45.7V130.7c0-25.2,20.5-45.7,45.7-45.7c25.2,0,45.7,20.5,45.7,45.7v114.4
	C266.6,270.3,246.1,290.8,220.9,290.8"/>
<path class="st0" d="M323.7,290.8c-25.2,0-45.7-20.5-45.7-45.7V130.7c0-25.2,20.5-45.7,45.7-45.7c25.2,0,45.7,20.5,45.7,45.7v114.4
	C369.4,270.3,348.9,290.8,323.7,290.8"/>
<path class="st1" d="M148.3,38.9c0,16.8-13.6,30.4-30.4,30.4c-16.8,0-30.4-13.6-30.4-30.4c0-16.8,13.6-30.4,30.4-30.4
	C134.7,8.4,148.3,22.1,148.3,38.9"/>
<path class="st1" d="M485.5,107.1c0-7.4,1.7-13,5.1-16.6c3.4-3.6,8.6-5.4,15.5-5.4c6.9,0,12.1,1.8,15.5,5.5
	c3.5,3.7,5.2,9.2,5.2,16.5V269c0,7.4-1.7,12.9-5.1,16.5c-3.4,3.6-8.6,5.5-15.6,5.5c-6.8,0-11.9-1.9-15.4-5.5
	c-3.5-3.7-5.2-9.2-5.2-16.4V107.1z"/>
<path class="st1" d="M602.3,266.4c0,8.4-1.7,14.5-5,18.5c-3.4,4-8.5,6-15.4,6c-7.1,0-12.3-2-15.5-5.9c-3.2-3.9-4.8-10.1-4.8-18.7
	V116.5c0-12.2,1.8-20.5,5.4-24.9c3.6-4.4,10.2-6.6,19.6-6.6c10.8,0,21.6,9.1,32.4,27.4c1,1.6,1.7,2.9,2.2,3.7l65,109.6V109.6
	c0-8.4,1.7-14.5,5-18.5c3.3-4,8.5-6,15.5-6c7,0,12.1,2,15.4,5.9c3.3,3.9,4.9,10.2,4.9,18.6V260c0,11.6-1.6,19.7-5,24.2
	c-3.3,4.5-9.1,6.8-17.4,6.8c-7.3,0-13-1.3-17.2-3.8c-4.2-2.5-9.2-8.8-15.1-18.7l-70-117.9V266.4z"/>
<path class="st0" d="M799.5,266.4c0,8.4-1.6,14.7-4.6,18.6c-3.1,4-8,5.9-14.6,5.9c-6.8,0-11.8-1.9-14.9-5.8
	c-3.1-3.9-4.6-10.1-4.6-18.7V116.5c0-12.2,1.8-20.5,5.4-24.9c3.6-4.4,10.2-6.6,19.6-6.6h14.4c8.2,0,14.1,1.6,17.8,4.7
	c3.7,3.1,7.3,11.5,10.7,25.2l33,125.7l31.8-123.1c3.6-13.9,7.3-22.8,11-26.6c3.7-3.9,9.2-5.8,16.4-5.8h16.5c9.4,0,16,2.2,19.6,6.7
	c3.6,4.4,5.4,12.7,5.4,24.8v149.9c0,8.4-1.6,14.7-4.7,18.6c-3.1,4-8,5.9-14.5,5.9c-6.8,0-11.8-2-14.9-5.9
	c-3.1-3.9-4.6-10.1-4.6-18.7V126.6l-34.6,136.8c-2.7,10.2-6.1,17.4-10.1,21.5c-4,4-9.8,6.1-17.2,6.1c-7.3,0-13-2.1-17.3-6.4
	c-4.3-4.2-7.7-11.3-10.4-21.2l-34.6-136.8V266.4z"/>
<path class="st0" d="M1085.2,82.6c30,0,53.8,9.5,71.6,28.6c17.8,19.1,26.7,44.8,26.7,77.1c0,32.4-8.9,58.1-26.7,77.1
	c-17.8,19.1-41.6,28.6-71.6,28.6c-30.1,0-53.9-9.5-71.6-28.6c-17.6-19-26.4-44.8-26.4-77.2c0-32.5,8.8-58.3,26.4-77.3
	C1031.3,92.1,1055.1,82.6,1085.2,82.6 M1085.2,118.6c-17.6,0-31.3,6.1-41.2,18.3c-9.8,12.2-14.7,29.4-14.7,51.5
	c0,22.1,4.9,39.2,14.7,51.5c9.8,12.2,23.5,18.3,41.2,18.3c17.8,0,31.7-6.1,41.6-18.3c9.9-12.2,14.9-29.4,14.9-51.5
	c0-22.1-4.9-39.2-14.9-51.5C1116.9,124.7,1103,118.6,1085.2,118.6z"/>
<path class="st0" d="M1233.1,288.5c-9.4,0-16-2.2-19.6-6.6c-3.6-4.4-5.4-12.7-5.4-24.9V107.1c0-7,1.8-12.4,5.4-16.3
	c3.6-3.9,8.7-5.8,15.2-5.8c6.9,0,12.1,1.8,15.5,5.5c3.5,3.7,5.2,9.2,5.2,16.5v144.6h75.9c7.9,0,14,1.5,18.3,4.6
	c4.3,3.1,6.5,7.5,6.5,13.2c0,6.6-1.9,11.4-5.9,14.4c-3.9,3-10.2,4.5-18.9,4.5H1233.1z"/>
<path class="st0" d="M1388.8,288.5c-9.5,0-16-2.2-19.6-6.6c-3.6-4.4-5.5-12.7-5.5-24.9V119.4c0-12.3,1.8-20.6,5.5-25
	c3.6-4.4,10.2-6.6,19.6-6.6h53.6c30.8,0,53.8,8.3,68.9,24.9c15.1,16.6,22.7,41.9,22.7,75.7c0,18.4-2.8,34.5-8.4,48.5
	c-5.6,14-13.7,25.3-24.3,33.8c-8,6.4-17.1,10.9-27.3,13.7c-10.2,2.8-24.4,4.1-42.8,4.1H1388.8z M1404.2,123.1v129.2h33.1
	c19.1,0,33-5,41.6-15.1c8.6-10,12.9-26.3,12.9-48.8c0-22.5-4-38.9-12-49.5c-8-10.5-20.5-15.8-37.5-15.8H1404.2z"/>
</svg>
